{"glyphs":{"0":{"ha":789,"x_min":0,"x_max":0,"o":"m 394 -21 b 719 486 582 -21 719 178 b 394 993 719 794 582 993 b 69 486 207 993 69 794 b 394 -21 69 178 207 -21 z m 394 -7 b 142 486 253 -7 142 188 b 394 979 142 785 253 979 b 647 486 535 979 647 785 b 394 -7 647 188 535 -7 z "},"1":{"ha":461,"x_min":0,"x_max":0,"o":"m 406 0 l 406 15 l 344 19 b 271 110 306 22 271 44 l 271 971 l 260 975 l 53 853 l 58 839 l 125 869 b 208 831 171 890 208 892 l 208 110 b 132 19 208 44 171 22 l 67 15 l 67 0 z "},"2":{"ha":715,"x_min":0,"x_max":0,"o":"m 621 0 l 668 238 l 653 238 b 454 61 614 96 579 61 l 128 61 l 381 336 b 614 740 489 453 614 568 b 346 993 614 890 488 993 b 57 768 199 993 74 893 b 94 717 53 736 71 717 b 142 769 121 717 138 736 b 346 975 157 872 225 975 b 542 740 476 975 540 860 b 310 299 543 581 449 457 l 57 15 l 57 0 z "},"3":{"ha":735,"x_min":0,"x_max":0,"o":"m 351 -21 b 679 264 522 -21 679 82 b 426 542 679 400 585 521 l 426 557 b 611 781 528 599 611 679 b 354 993 611 900 506 993 b 93 797 214 993 103 897 b 131 743 90 761 108 743 b 176 797 149 743 169 754 b 356 978 189 890 243 978 b 542 781 450 978 543 911 b 275 515 540 649 425 561 l 275 486 b 608 253 454 535 608 414 b 360 -1 608 93 503 -1 b 138 151 225 -1 163 79 b 90 197 129 179 113 197 b 51 156 68 197 50 178 b 351 -21 57 56 199 -21 z "},"4":{"ha":800,"x_min":0,"x_max":0,"o":"m 681 0 l 681 15 l 585 19 b 521 94 550 21 521 35 l 521 297 l 736 297 l 758 357 l 521 357 l 521 972 l 506 972 l 26 297 l 460 297 l 460 94 b 396 19 460 35 431 21 l 303 15 l 303 0 z m 460 857 l 460 357 l 107 357 z "},"5":{"ha":701,"x_min":0,"x_max":0,"o":"m 319 -21 b 632 264 485 -21 632 92 b 161 707 632 492 407 603 l 232 910 l 588 910 l 614 972 l 232 972 l 118 658 l 128 647 b 568 257 336 561 568 446 b 332 -1 568 96 468 -1 b 128 151 221 -1 153 79 b 81 197 119 179 103 197 b 42 156 58 197 42 178 b 319 -21 42 56 192 -21 z "},"6":{"ha":735,"x_min":0,"x_max":0,"o":"m 369 -21 b 669 289 535 -21 669 100 b 397 576 669 453 553 576 b 146 446 290 576 210 524 l 128 446 b 513 978 169 713 414 921 l 504 993 b 60 365 363 928 60 706 b 369 -21 60 110 203 -21 z m 369 -4 b 131 346 224 -3 131 147 l 131 396 b 379 542 193 488 282 542 b 599 276 508 542 601 428 b 369 -4 597 92 494 -6 z "},"7":{"ha":678,"x_min":0,"x_max":0,"o":"m 257 -17 b 299 43 279 -17 297 0 b 492 686 306 288 382 500 l 650 956 l 650 974 l 83 974 l 40 721 l 56 721 b 240 913 103 897 133 913 l 597 913 l 468 701 b 219 57 361 522 242 307 b 257 -17 215 8 232 -17 z "},"8":{"ha":731,"x_min":0,"x_max":0,"o":"m 367 -21 b 672 249 535 -22 672 100 b 460 517 672 364 594 447 l 411 540 b 628 772 526 588 628 660 b 369 993 628 900 501 992 b 103 772 236 994 103 899 b 294 528 103 664 176 592 l 311 519 b 60 247 176 463 61 379 b 367 -21 58 94 197 -19 z m 329 585 b 164 794 231 635 164 697 b 369 976 165 911 267 978 b 561 779 469 975 563 897 b 393 551 561 678 493 606 z m 367 -3 b 128 244 235 -3 128 104 b 328 510 128 372 218 454 l 433 454 b 608 222 558 389 608 314 b 367 -3 608 83 497 -3 z "},"9":{"ha":735,"x_min":0,"x_max":0,"o":"m 221 -21 b 665 607 363 44 665 267 b 356 993 665 863 522 993 b 56 683 190 993 56 872 b 328 396 56 519 171 396 b 579 526 435 396 515 450 l 596 526 b 213 -6 556 260 311 51 z m 346 431 b 126 697 217 431 124 544 b 356 976 128 882 231 978 b 593 628 500 975 593 825 l 593 576 b 346 431 532 486 443 431 z "}," ":{"ha":347,"x_min":0,"x_max":0,"o":""},"A":{"ha":1069,"x_min":0,"x_max":0,"o":"m 1019 18 b 903 115 956 24 931 49 l 546 972 l 519 972 l 178 124 b 44 18 144 39 100 24 l 14 15 l 14 0 l 325 0 l 325 15 l 276 18 b 213 118 217 22 185 47 l 308 368 l 718 368 l 822 115 b 757 18 851 47 813 22 l 711 15 l 711 0 l 1056 0 l 1056 15 z m 497 863 l 515 863 l 708 392 l 317 392 z "},"B":{"ha":951,"x_min":0,"x_max":0,"o":"m 518 0 b 881 269 764 0 881 131 b 624 517 881 393 786 499 l 624 535 b 818 744 728 560 818 642 b 517 972 818 854 728 972 l 69 972 l 69 958 l 126 954 b 204 860 183 950 204 925 l 204 114 b 126 19 204 49 183 24 l 72 15 l 72 0 z m 274 860 b 369 951 274 926 293 951 l 503 951 b 743 744 674 951 742 860 b 504 531 744 628 656 531 l 274 531 z m 414 22 b 274 114 310 22 274 22 l 274 507 l 499 507 b 801 269 708 507 800 410 b 492 22 803 125 697 22 z "},"C":{"ha":1068,"x_min":0,"x_max":0,"o":"m 556 -21 b 999 343 781 -21 947 121 l 982 346 b 583 25 926 151 781 25 b 144 490 324 25 144 229 b 569 971 144 743 308 971 b 857 592 789 971 956 806 l 872 582 l 992 761 b 561 993 893 914 735 993 b 69 475 282 993 69 768 b 556 -21 69 200 269 -21 z "},"D":{"ha":1029,"x_min":0,"x_max":0,"o":"m 489 0 b 960 500 800 0 960 231 b 450 972 960 761 788 972 l 69 972 l 69 958 l 125 954 b 203 860 182 950 203 925 l 203 114 b 125 19 203 49 182 24 l 69 15 l 69 0 z m 454 19 b 272 114 329 21 272 24 l 272 860 b 367 953 272 928 290 953 l 449 953 b 879 501 719 953 878 757 b 454 19 881 242 719 18 z "},"E":{"ha":908,"x_min":0,"x_max":0,"o":"m 832 0 l 854 261 l 839 261 b 622 24 799 86 742 24 l 379 24 b 272 114 294 24 272 39 l 272 494 l 582 494 b 689 397 649 494 683 463 l 694 339 l 710 339 l 710 675 l 694 675 l 689 618 b 582 518 683 551 649 518 l 272 518 l 272 860 b 386 951 272 935 293 951 l 603 951 b 803 729 731 951 774 853 l 818 729 l 785 972 l 69 972 l 69 958 l 126 954 b 203 860 183 950 203 925 l 203 114 b 126 19 203 49 183 24 l 69 15 l 69 0 z "},"F":{"ha":854,"x_min":0,"x_max":0,"o":"m 410 0 l 410 15 l 351 19 b 272 114 294 24 272 49 l 272 481 l 558 481 b 669 382 629 481 663 447 l 674 324 l 689 324 l 689 660 l 674 660 l 669 603 b 558 504 663 536 629 504 l 272 504 l 272 860 b 378 951 272 925 296 951 l 600 951 b 799 739 717 951 764 872 l 813 739 l 783 972 l 69 972 l 69 958 l 125 954 b 203 860 182 950 203 925 l 203 114 b 125 19 203 49 182 24 l 69 15 l 69 0 z "},"G":{"ha":1093,"x_min":0,"x_max":0,"o":"m 560 -21 b 954 151 735 -21 865 38 l 954 306 b 1031 399 954 368 974 393 l 1079 403 l 1079 417 l 676 417 l 676 403 l 783 399 b 888 304 871 394 888 369 l 888 188 b 586 7 888 86 740 7 b 144 490 326 7 144 229 b 569 971 144 743 308 971 b 857 592 789 971 956 806 l 872 582 l 992 761 b 561 993 893 914 735 993 b 69 475 282 993 69 768 b 560 -21 69 200 269 -21 z "},"H":{"ha":1110,"x_min":0,"x_max":0,"o":"m 407 0 l 407 15 l 350 19 b 272 114 293 24 272 49 l 272 490 l 838 490 l 838 114 b 760 19 838 49 817 24 l 703 15 l 703 0 l 1040 0 l 1040 15 l 985 19 b 907 114 928 24 907 49 l 907 860 b 985 954 907 925 928 950 l 1040 958 l 1040 972 l 703 972 l 703 958 l 760 954 b 838 860 817 950 838 925 l 838 514 l 272 514 l 272 860 b 350 954 272 925 293 950 l 407 958 l 407 972 l 69 972 l 69 958 l 125 954 b 203 860 182 950 203 925 l 203 114 b 125 19 203 49 182 24 l 69 15 l 69 0 z "},"I":{"ha":478,"x_min":0,"x_max":0,"o":"m 408 0 l 408 15 l 351 19 b 274 114 294 24 274 49 l 274 860 b 351 954 274 925 294 950 l 408 958 l 408 972 l 69 972 l 69 958 l 126 954 b 204 860 183 950 204 925 l 204 114 b 126 19 204 49 183 24 l 69 15 l 69 0 z "},"J":{"ha":463,"x_min":0,"x_max":0,"o":"m 43 -222 b 260 63 172 -206 260 -121 l 260 865 b 339 954 260 932 286 950 l 392 958 l 392 972 l 51 972 l 51 958 l 111 954 b 190 865 164 950 190 932 l 190 63 b 42 -207 190 -87 164 -185 z "},"K":{"ha":1007,"x_min":0,"x_max":0,"o":"m 407 0 l 407 15 l 350 19 b 272 114 293 24 272 49 l 272 450 l 344 521 l 714 101 b 693 21 761 50 746 25 l 647 17 l 647 3 l 999 3 l 999 17 l 961 21 b 793 114 899 28 840 60 l 393 567 l 694 851 b 892 954 763 917 832 947 l 924 958 l 924 972 l 610 972 l 610 958 l 651 954 b 663 860 700 949 715 910 l 279 488 l 263 488 l 272 589 l 272 860 b 350 954 272 925 293 950 l 407 958 l 407 972 l 69 972 l 69 958 l 125 954 b 203 860 182 950 203 925 l 203 114 b 125 19 203 49 182 24 l 69 15 l 69 0 z "},"L":{"ha":839,"x_min":0,"x_max":0,"o":"m 765 0 l 797 240 l 783 240 b 510 22 751 100 726 22 l 419 22 b 272 114 310 22 272 33 l 272 860 b 347 954 272 925 290 950 l 407 958 l 407 972 l 69 972 l 69 958 l 126 954 b 203 860 183 950 203 925 l 203 114 b 126 19 203 49 183 24 l 69 15 l 69 0 z "},"M":{"ha":1251,"x_min":0,"x_max":0,"o":"m 372 0 l 372 15 l 314 19 b 231 114 257 24 231 46 l 231 832 l 249 832 l 593 28 l 619 28 l 958 832 l 978 832 l 978 114 b 900 19 978 49 957 24 l 843 15 l 843 0 l 1182 0 l 1182 15 l 1125 19 b 1047 114 1068 24 1047 49 l 1047 860 b 1125 954 1047 925 1068 950 l 1182 958 l 1182 972 l 986 972 l 643 151 l 626 151 l 274 972 l 67 972 l 67 958 l 122 954 b 204 860 179 949 204 925 l 204 114 b 122 19 204 46 179 24 l 67 15 l 67 0 z "},"N":{"ha":1082,"x_min":0,"x_max":0,"o":"m 376 0 l 376 15 l 318 19 b 235 114 261 24 235 49 l 235 849 l 253 849 l 874 0 l 893 0 l 893 860 b 975 954 893 926 918 949 l 1029 958 l 1029 972 l 725 972 l 725 958 l 783 954 b 867 860 840 950 867 925 l 867 161 l 849 161 l 261 972 l 71 972 l 71 958 l 132 954 b 208 879 165 951 208 939 l 208 114 b 126 19 208 46 183 24 l 72 15 l 72 0 z "},"O":{"ha":1122,"x_min":0,"x_max":0,"o":"m 561 -21 b 1053 486 836 -21 1053 186 b 561 993 1053 786 836 993 b 69 486 286 993 69 786 b 561 -21 69 186 286 -21 z m 561 -1 b 151 486 344 1 151 194 b 561 974 151 778 344 972 b 971 486 778 972 971 778 b 561 -1 971 194 778 1 z "},"P":{"ha":871,"x_min":0,"x_max":0,"o":"m 407 0 l 407 14 l 350 19 b 272 114 293 24 272 49 l 272 435 l 474 435 b 826 710 681 435 826 543 b 467 972 826 879 683 972 l 69 972 l 69 958 l 125 954 b 203 860 182 950 203 925 l 203 114 b 125 19 203 49 182 24 l 69 15 l 69 0 z m 272 860 b 363 951 272 928 289 950 l 460 951 b 746 710 626 951 747 864 b 457 458 746 557 631 458 l 272 458 z "},"Q":{"ha":1119,"x_min":0,"x_max":0,"o":"m 1008 -246 b 1211 -144 1092 -246 1153 -203 l 1200 -132 b 1043 -201 1158 -174 1103 -201 b 876 -131 975 -201 917 -160 l 819 -87 b 671 -18 781 -60 728 -19 l 671 0 b 1053 486 894 35 1053 224 b 561 993 1053 786 836 993 b 69 486 286 993 69 786 b 561 -21 69 186 286 -21 b 726 -97 649 -21 675 -56 l 796 -151 b 1008 -246 864 -207 919 -246 z m 561 0 b 151 486 344 1 151 194 b 561 974 151 778 344 972 b 971 486 778 972 971 778 b 561 0 971 194 778 1 z "},"R":{"ha":985,"x_min":0,"x_max":0,"o":"m 819 -17 b 961 153 900 -17 950 51 l 947 156 b 847 28 932 64 894 28 b 763 119 801 28 774 69 l 731 267 b 565 469 710 364 665 456 l 565 486 b 822 722 740 499 822 614 b 518 972 822 851 726 972 l 69 972 l 69 958 l 126 954 b 203 860 183 950 203 925 l 203 114 b 126 19 203 49 183 24 l 69 15 l 69 0 l 407 0 l 407 15 l 347 19 b 272 114 290 24 272 49 l 272 471 l 458 471 b 654 267 599 471 632 378 l 686 111 b 819 -17 704 26 746 -17 z m 272 860 b 376 951 272 935 292 951 l 489 951 b 746 722 664 951 746 849 b 485 494 746 597 657 494 l 272 494 z "},"S":{"ha":858,"x_min":0,"x_max":0,"o":"m 467 -21 b 783 247 618 -21 783 67 b 542 510 783 379 689 467 l 403 550 b 161 779 254 593 161 653 b 397 976 161 901 281 976 b 731 694 547 976 692 853 l 746 694 l 732 986 l 717 986 b 668 919 714 944 699 919 b 400 997 614 919 539 997 b 100 747 246 997 100 901 b 343 493 100 618 193 539 l 485 450 b 714 214 647 400 714 333 b 463 3 714 93 603 3 b 92 304 317 3 125 110 l 76 304 l 90 -18 l 106 -18 b 156 63 107 24 118 63 b 467 -21 214 63 283 -21 z "},"T":{"ha":871,"x_min":0,"x_max":0,"o":"m 604 0 l 604 15 l 546 19 b 469 114 489 24 469 49 l 469 860 b 558 954 469 928 489 954 l 647 953 b 829 746 760 951 792 892 l 843 746 l 813 972 l 57 972 l 28 746 l 42 746 b 224 953 79 892 110 953 l 313 953 b 400 860 382 953 400 929 l 400 114 b 325 19 400 49 382 24 l 265 15 l 265 0 z "},"U":{"ha":1039,"x_min":0,"x_max":0,"o":"m 526 -17 b 872 353 728 -18 872 125 l 872 860 b 956 954 872 926 899 949 l 1008 958 l 1008 972 l 708 972 l 708 958 l 764 954 b 847 860 821 949 847 925 l 847 364 b 538 26 847 143 708 26 b 235 360 368 26 235 138 l 235 860 b 314 954 235 925 257 949 l 368 958 l 368 972 l 31 972 l 31 958 l 86 954 b 165 860 143 949 165 925 l 165 343 b 526 -17 165 110 321 -17 z "},"V":{"ha":1081,"x_min":0,"x_max":0,"o":"m 556 0 l 888 850 b 1025 954 921 935 969 949 l 1067 958 l 1067 972 l 742 972 l 742 958 l 790 954 b 854 856 850 950 882 926 l 576 122 l 560 122 l 260 857 b 326 954 232 925 269 950 l 371 958 l 371 972 l 14 972 l 14 958 l 63 954 b 181 857 126 950 153 925 l 535 0 z "},"W":{"ha":1494,"x_min":0,"x_max":0,"o":"m 1156 958 l 1203 954 b 1268 856 1263 950 1294 926 l 993 118 l 976 118 l 785 556 l 908 850 b 1046 954 943 933 990 949 l 1088 958 l 1088 972 l 767 972 l 767 958 l 811 956 b 875 856 869 953 906 925 l 768 594 l 653 857 b 718 956 622 924 663 951 l 757 958 l 757 972 l 410 972 l 410 958 l 454 954 b 574 857 518 950 543 925 l 731 501 l 574 118 l 556 118 l 260 857 b 326 954 233 925 269 950 l 368 958 l 368 972 l 14 972 l 14 958 l 63 954 b 181 857 126 950 154 925 l 532 0 l 553 0 l 747 464 l 951 0 l 972 0 l 1301 850 b 1439 954 1335 933 1382 949 l 1481 958 l 1481 972 l 1156 972 z "},"X":{"ha":944,"x_min":0,"x_max":0,"o":"m 347 0 l 347 15 l 301 19 b 260 113 251 24 219 47 l 454 435 l 471 435 l 672 117 b 640 18 715 50 700 25 l 603 15 l 603 0 l 931 0 l 931 15 l 894 19 b 757 115 826 26 804 43 l 501 508 l 722 857 b 876 954 771 933 825 949 l 919 958 l 919 972 l 599 972 l 599 958 l 644 954 b 685 860 693 949 725 925 l 496 542 l 478 542 l 275 856 b 317 954 233 919 258 947 l 353 958 l 353 972 l 14 972 l 14 958 l 51 954 b 192 857 115 946 149 921 l 449 468 l 224 115 b 69 19 172 38 119 24 l 25 15 l 25 0 z "},"Y":{"ha":922,"x_min":0,"x_max":0,"o":"m 58 954 b 182 860 122 949 143 926 l 429 435 l 429 114 b 354 19 429 49 411 24 l 297 15 l 297 0 l 633 0 l 633 15 l 575 19 b 499 114 518 24 499 49 l 499 438 l 725 860 b 868 954 769 942 814 949 l 908 958 l 908 972 l 610 972 l 610 958 l 657 954 b 693 863 708 949 729 931 l 494 479 l 476 479 l 258 863 b 304 954 222 928 244 949 l 342 958 l 342 972 l 14 972 l 14 958 z "},"Z":{"ha":836,"x_min":0,"x_max":0,"o":"m 746 0 l 771 282 l 756 282 b 540 22 717 107 667 22 l 156 24 l 751 949 l 751 972 l 93 972 l 74 699 l 89 699 b 275 949 122 832 150 949 l 668 949 l 69 26 l 69 0 z "},"a":{"ha":806,"x_min":0,"x_max":0,"o":"m 285 -21 b 569 224 421 -21 526 75 l 588 224 l 576 114 b 671 -14 564 13 626 -14 b 796 106 729 -14 776 29 l 781 110 b 697 28 764 54 736 28 b 638 111 661 28 638 57 l 638 476 b 375 715 638 629 542 718 b 82 515 226 715 96 622 b 119 465 79 485 94 465 b 169 517 149 465 165 488 b 375 697 181 596 246 697 b 575 479 503 701 575 606 l 575 464 b 444 381 575 411 532 390 l 338 368 b 67 164 188 351 67 297 b 285 -21 67 49 158 -21 z m 314 31 b 139 174 207 31 139 83 b 360 343 139 281 239 326 l 444 354 b 569 397 507 363 553 379 l 575 397 l 575 350 b 314 31 575 176 460 31 z "},"b":{"ha":796,"x_min":0,"x_max":0,"o":"m 390 -21 b 729 358 529 -21 729 101 b 442 715 729 615 583 715 b 172 531 315 715 233 633 l 154 531 l 167 663 l 167 1056 l 157 1063 l -42 975 l -35 960 l 33 983 b 104 921 76 999 104 988 l 104 0 l 119 0 l 153 56 l 167 56 b 390 -21 211 24 296 -21 z m 386 1 b 167 140 282 1 203 81 l 167 432 b 418 672 167 532 288 672 b 654 358 540 672 654 565 b 386 1 654 154 553 1 z "},"c":{"ha":765,"x_min":0,"x_max":0,"o":"m 411 -21 b 710 178 579 -21 676 103 l 693 186 b 435 24 660 117 569 24 b 139 351 272 24 139 149 b 406 696 139 519 239 696 b 618 521 535 696 601 614 b 667 467 624 489 639 467 b 706 518 693 467 710 489 b 421 715 689 629 563 715 b 67 343 218 715 67 556 b 411 -21 67 115 211 -21 z "},"d":{"ha":858,"x_min":0,"x_max":0,"o":"m 364 -21 b 624 164 490 -21 565 61 l 642 164 l 621 -8 l 631 -15 l 836 76 l 831 90 l 763 68 b 692 131 710 50 692 75 l 692 1056 l 682 1063 l 483 975 l 490 960 l 558 983 b 629 921 601 999 629 988 l 629 638 b 419 715 585 678 507 715 b 67 333 281 715 67 590 b 364 -21 67 76 222 -21 z m 388 22 b 142 333 265 22 142 126 b 419 693 142 538 253 693 b 629 551 521 693 599 614 l 629 263 b 388 22 629 163 519 22 z "},"e":{"ha":761,"x_min":0,"x_max":0,"o":"m 411 -21 b 708 178 579 -21 675 103 l 693 186 b 436 22 660 117 569 22 b 139 356 263 22 139 164 b 144 421 139 376 140 399 l 560 418 b 686 513 626 418 686 440 b 421 715 686 614 585 715 b 67 346 250 715 67 576 b 411 -21 67 118 213 -21 z m 146 442 b 413 697 172 582 281 697 b 608 525 547 697 608 599 b 517 442 608 467 556 442 z "},"f":{"ha":497,"x_min":0,"x_max":0,"o":"m 354 0 l 354 15 l 297 19 b 236 114 258 22 236 44 l 236 658 l 456 658 l 464 694 l 236 694 b 410 1004 236 869 271 1004 b 526 979 467 1004 478 979 b 578 1019 557 979 578 1000 b 494 1069 578 1050 543 1069 b 174 694 346 1069 182 932 l 43 694 l 35 658 l 172 658 l 172 114 b 111 19 172 44 150 22 l 57 15 l 57 0 z "},"g":{"ha":749,"x_min":0,"x_max":0,"o":"m 340 -318 b 721 -79 542 -318 721 -232 b 489 83 721 17 625 83 l 269 83 b 146 161 186 83 146 119 b 268 247 146 214 225 240 b 371 232 301 238 336 232 b 650 468 526 232 650 318 b 531 660 650 565 600 626 l 531 678 b 733 743 599 681 675 686 b 746 819 764 775 768 804 b 675 789 724 838 690 822 b 494 693 639 715 568 689 b 371 715 458 707 417 715 b 92 468 219 715 92 617 b 231 271 92 368 151 301 l 231 253 b 94 138 157 232 94 194 b 199 36 94 83 142 43 l 199 19 b 36 -146 118 0 36 -47 b 340 -318 36 -256 156 -318 z m 371 249 b 160 471 258 249 160 325 b 371 699 160 618 258 699 b 583 471 483 699 583 618 b 371 249 583 325 483 249 z m 369 -297 b 108 -137 225 -297 108 -246 b 264 24 108 -43 179 0 l 458 24 b 656 -107 568 24 656 -11 b 369 -297 656 -222 526 -297 z "},"h":{"ha":854,"x_min":0,"x_max":0,"o":"m 335 0 l 335 15 l 278 19 b 217 110 239 22 217 44 l 217 457 b 461 672 226 567 354 672 b 650 439 568 672 650 601 l 650 110 b 588 19 650 44 628 22 l 535 15 l 535 0 l 832 0 l 832 15 l 775 19 b 713 110 736 22 713 44 l 713 451 b 490 715 713 631 619 715 b 219 538 369 715 282 636 l 201 538 l 217 664 l 217 1056 l 207 1063 l 8 975 l 15 960 l 83 983 b 154 921 126 999 154 988 l 154 110 b 92 19 154 44 131 22 l 38 15 l 38 0 z "},"i":{"ha":382,"x_min":0,"x_max":0,"o":"m 199 889 b 261 950 235 889 261 915 b 199 1013 261 986 235 1013 b 135 950 164 1013 135 986 b 199 889 135 915 164 889 z m 354 0 l 354 15 l 299 19 b 236 110 258 22 236 44 l 236 703 l 226 710 l 28 621 l 35 607 l 103 631 b 174 567 146 646 174 633 l 174 110 b 111 19 174 44 150 22 l 57 15 l 57 0 z "},"j":{"ha":363,"x_min":0,"x_max":0,"o":"m 217 889 b 279 950 251 889 279 915 b 217 1013 279 986 251 1013 b 153 950 182 1013 153 986 b 217 889 153 915 182 889 z m 4 -318 b 253 -54 126 -307 253 -272 l 253 703 l 243 710 l 44 621 l 51 607 l 119 631 b 189 567 163 646 189 633 l 189 -36 b 4 -303 189 -208 125 -285 z "},"k":{"ha":756,"x_min":0,"x_max":0,"o":"m 335 0 l 335 15 l 279 19 b 217 107 239 22 217 42 l 217 338 l 263 381 l 544 58 b 533 19 565 33 554 21 l 482 14 l 482 0 l 747 0 l 747 14 l 704 21 b 622 69 675 25 646 42 l 307 422 l 522 619 b 635 674 556 651 594 667 l 672 681 l 672 694 l 419 694 l 419 681 l 467 675 b 474 613 494 672 510 647 l 224 374 l 207 374 l 217 475 l 217 1056 l 207 1063 l 8 975 l 15 960 l 83 983 b 154 924 126 999 154 990 l 154 107 b 92 19 154 42 131 22 l 38 15 l 38 0 z "},"l":{"ha":363,"x_min":0,"x_max":0,"o":"m 335 0 l 335 15 l 279 19 b 217 110 239 22 217 44 l 217 1056 l 207 1063 l 8 975 l 15 960 l 83 983 b 154 921 126 999 154 988 l 154 110 b 92 19 154 44 131 22 l 38 15 l 38 0 z "},"m":{"ha":1264,"x_min":0,"x_max":0,"o":"m 349 0 l 349 15 l 292 19 b 231 110 253 22 231 44 l 231 451 b 456 671 238 586 360 671 b 615 435 561 671 615 583 l 615 110 b 554 19 615 44 593 22 l 500 15 l 500 0 l 797 0 l 797 15 l 740 19 b 679 110 701 22 679 44 l 679 443 b 904 671 686 578 799 671 b 1064 456 1010 671 1064 593 l 1064 110 b 1001 19 1064 44 1042 22 l 949 15 l 949 0 l 1244 0 l 1244 15 l 1189 19 b 1126 110 1149 22 1126 44 l 1126 469 b 925 715 1126 632 1046 715 b 683 544 803 715 722 619 l 667 544 b 476 715 650 639 592 715 b 233 544 369 715 289 643 l 215 544 l 238 701 l 228 708 l 22 618 l 28 604 l 96 626 b 168 564 149 644 168 619 l 168 110 b 106 19 168 44 144 22 l 51 15 l 51 0 z "},"n":{"ha":867,"x_min":0,"x_max":0,"o":"m 349 0 l 349 15 l 293 19 b 231 110 253 22 231 44 l 232 457 b 478 672 244 564 371 672 b 667 439 585 672 667 601 l 667 110 b 604 19 667 44 643 22 l 550 15 l 550 0 l 847 0 l 847 15 l 792 19 b 729 110 751 22 729 44 l 729 451 b 506 715 729 631 636 715 b 236 538 386 715 300 636 l 219 538 l 239 701 l 228 708 l 22 618 l 28 604 l 96 626 b 168 564 149 644 168 619 l 168 110 b 106 19 168 44 136 22 l 51 15 l 51 0 z "},"o":{"ha":840,"x_min":0,"x_max":0,"o":"m 422 -21 b 774 346 614 -21 775 121 b 419 715 774 572 611 715 b 67 343 226 715 65 571 b 422 -21 68 117 231 -21 z m 422 -1 b 140 344 275 -4 140 122 b 419 696 140 567 272 696 b 704 346 565 697 701 568 b 422 -1 706 124 569 -1 z "},"p":{"ha":850,"x_min":0,"x_max":0,"o":"m 340 -306 l 340 -292 l 283 -287 b 222 -196 244 -285 222 -261 l 222 58 b 435 -21 265 18 347 -21 b 783 363 574 -21 783 106 b 486 717 783 619 629 717 b 226 531 361 717 286 633 l 210 531 l 229 703 l 219 710 l 14 618 l 19 606 l 88 628 b 160 564 140 646 160 621 l 160 -196 b 97 -287 160 -261 136 -285 l 43 -292 l 43 -306 z m 431 1 b 222 144 329 1 253 82 l 222 432 b 463 672 222 533 331 672 b 710 361 585 672 710 568 b 431 1 710 157 597 1 z "},"q":{"ha":838,"x_min":0,"x_max":0,"o":"m 838 -232 l 831 -217 l 763 -240 b 692 -178 719 -256 692 -244 l 692 694 l 676 694 l 643 639 l 629 639 b 408 715 585 672 504 715 b 67 336 271 715 67 593 b 354 -21 67 79 213 -21 b 624 164 481 -21 563 61 l 642 164 l 629 32 l 629 -312 l 639 -319 z m 378 22 b 142 338 256 22 142 129 b 410 693 142 542 243 693 b 629 554 514 693 593 614 l 629 263 b 378 22 629 164 508 22 z "},"r":{"ha":613,"x_min":0,"x_max":0,"o":"m 354 0 l 354 15 l 299 19 b 236 107 258 22 236 42 l 236 422 b 410 636 244 519 335 636 b 508 613 461 636 465 613 b 560 656 539 613 560 632 b 475 710 560 688 525 710 b 239 504 385 710 308 640 l 222 504 l 244 701 l 233 708 l 28 617 l 33 603 l 101 626 b 174 564 154 643 174 619 l 174 107 b 111 19 174 42 151 22 l 58 15 l 58 0 z "},"s":{"ha":692,"x_min":0,"x_max":0,"o":"m 374 -21 b 621 171 496 -21 621 42 b 432 368 621 283 535 339 l 324 399 b 161 553 221 426 161 465 b 333 696 161 643 246 696 b 576 481 458 696 546 601 l 590 481 l 576 708 l 563 708 b 532 663 561 678 553 663 b 336 714 486 663 461 714 b 97 528 221 714 97 650 b 283 339 97 429 172 368 l 390 308 b 553 142 501 278 553 226 b 367 -1 553 58 483 -1 b 94 235 247 -1 129 83 l 81 235 l 94 -14 l 108 -14 b 151 43 110 17 124 43 b 374 -21 196 43 226 -21 z "},"t":{"ha":471,"x_min":0,"x_max":0,"o":"m 289 -14 b 443 140 383 -14 426 75 l 428 144 b 311 31 408 85 367 31 b 207 179 247 31 207 79 l 207 658 l 411 658 l 421 694 l 207 694 l 207 875 l 185 875 l 178 811 b 47 690 167 725 124 699 l 14 688 l 14 658 l 144 658 l 144 164 b 289 -14 144 53 196 -14 z "},"u":{"ha":860,"x_min":0,"x_max":0,"o":"m 367 -21 b 638 158 486 -21 575 56 l 656 158 l 636 -7 l 646 -14 l 851 79 l 846 93 l 778 69 b 707 133 725 53 707 76 l 707 701 l 697 708 l 499 621 l 506 606 l 574 629 b 644 569 617 644 644 636 l 642 240 b 394 24 631 129 514 24 b 217 257 288 24 217 94 l 217 701 l 207 708 l 8 621 l 15 606 l 83 629 b 154 569 126 644 154 636 l 154 244 b 367 -21 154 65 236 -21 z "},"v":{"ha":825,"x_min":0,"x_max":0,"o":"m 431 0 l 668 583 b 774 676 696 650 725 671 l 811 681 l 811 694 l 556 694 l 556 681 l 593 676 b 644 600 631 674 665 651 l 451 110 l 435 110 l 210 615 b 268 676 190 660 233 672 l 308 681 l 308 694 l 14 694 l 14 681 l 51 676 b 150 593 94 672 121 656 l 419 0 z "},"w":{"ha":1094,"x_min":0,"x_max":0,"o":"m 365 0 l 556 504 l 574 504 l 747 0 l 760 0 l 950 583 b 1047 676 972 649 1001 671 l 1081 681 l 1081 694 l 844 694 l 844 681 l 881 676 b 926 600 918 672 942 649 l 779 122 l 763 122 l 597 615 b 650 676 583 658 619 672 l 686 681 l 686 694 l 418 694 l 418 681 l 451 676 b 540 593 490 672 519 656 l 553 558 l 386 122 l 371 122 l 194 615 b 246 676 179 660 215 672 l 283 681 l 283 694 l 14 694 l 14 681 l 47 676 b 136 593 86 672 114 656 l 351 0 z "},"x":{"ha":733,"x_min":0,"x_max":0,"o":"m 283 0 l 283 15 l 240 19 b 208 94 193 24 179 53 l 347 303 l 363 303 l 507 85 b 476 18 532 46 524 21 l 450 15 l 450 0 l 713 0 l 713 15 l 679 19 b 583 82 639 24 613 38 l 392 365 l 561 606 b 675 675 594 653 631 672 l 719 679 l 719 694 l 451 694 l 451 679 l 493 675 b 525 600 540 672 554 643 l 388 392 l 372 392 l 226 610 b 258 676 201 649 210 674 l 283 679 l 283 694 l 21 694 l 21 679 l 54 675 b 151 613 94 672 119 660 l 343 329 l 172 89 b 58 19 139 43 103 22 l 14 15 l 14 0 z "},"y":{"ha":825,"x_min":0,"x_max":0,"o":"m 124 -300 b 417 -28 222 -300 343 -210 l 668 583 b 774 676 696 650 725 671 l 811 681 l 811 694 l 556 694 l 556 681 l 593 676 b 644 600 631 674 665 651 l 454 117 l 440 117 l 210 615 b 267 676 190 658 233 672 l 308 681 l 308 694 l 14 694 l 14 681 l 51 676 b 150 593 94 672 121 656 l 415 24 b 124 -212 340 -162 244 -225 b 57 -254 81 -210 57 -231 b 124 -300 57 -281 78 -300 z "},"z":{"ha":665,"x_min":0,"x_max":0,"o":"m 578 0 l 610 232 l 594 232 b 403 24 564 97 510 24 l 136 24 l 596 679 l 596 694 l 97 694 l 67 467 l 82 467 b 269 672 113 601 167 672 l 519 672 l 56 17 l 56 0 z "},".":{"ha":293,"x_min":0,"x_max":0,"o":"m 147 -11 b 210 50 183 -11 210 15 b 147 113 210 86 183 113 b 83 50 113 113 83 86 b 147 -11 83 15 113 -11 z "},",":{"ha":308,"x_min":0,"x_max":0,"o":"m 100 -147 b 225 18 158 -128 225 -69 b 149 113 225 81 189 113 b 83 50 114 113 83 86 b 146 -11 83 15 113 -11 b 183 0 163 -11 175 -6 b 96 -131 183 -56 144 -107 l 79 -137 l 85 -153 z "},"/":{"ha":615,"x_min":0,"x_max":0,"o":"m 115 -187 l 532 1021 l 500 1021 l 83 -187 z "},"-":{"ha":710,"x_min":0,"x_max":0,"o":"m 629 482 l 640 511 l 81 511 l 69 482 z "},"’":{"ha":294,"x_min":0,"x_max":0,"o":"m 100 713 b 225 879 158 733 225 792 b 149 972 225 940 189 972 b 83 910 114 972 83 946 b 146 849 83 876 113 849 b 183 861 163 849 175 856 b 96 731 183 806 144 754 l 79 724 l 85 707 z "},"'":{"ha":294,"x_min":0,"x_max":0,"o":"m 100 713 b 225 879 158 733 225 792 b 149 972 225 940 189 972 b 83 910 114 972 83 946 b 146 849 83 876 113 849 b 183 861 163 849 175 856 b 96 731 183 806 144 754 l 79 724 l 85 707 z "},"&":{"ha":986,"x_min":0,"x_max":0,"o":"m 931 157 b 788 36 911 97 861 36 b 611 128 721 36 665 69 b 776 471 686 217 740 338 b 871 550 789 515 799 543 l 919 556 l 919 569 l 614 569 l 614 556 l 664 551 b 729 474 733 546 736 514 b 597 143 715 354 671 231 b 457 344 551 196 507 265 b 353 538 417 408 381 475 l 407 568 b 613 817 529 639 613 713 b 432 988 613 914 542 988 b 229 751 308 988 229 879 b 289 521 229 685 251 606 b 56 217 144 433 56 358 b 319 -19 56 106 143 -19 b 568 82 417 -19 500 18 b 747 -14 626 21 683 -14 b 944 153 861 -14 925 88 z m 432 974 b 554 822 521 974 554 897 b 415 596 554 735 521 660 l 346 554 b 293 763 313 632 293 704 b 432 974 293 868 333 974 z m 356 22 b 128 253 222 22 128 117 b 296 504 128 369 193 440 b 407 300 326 438 364 368 b 553 97 458 219 506 150 b 356 22 499 51 433 22 z "}}}
